Coordinates
version=1
nRows=14
nColumns=40
inDegrees=yes

Units are S.I. units (second, meters, Newtons, ...)
Angles are in degrees.

endheader
time	pelvis_tilt	pelvis_list	pelvis_rotation	pelvis_tx	pelvis_ty	pelvis_tz	hip_flexion_r	hip_adduction_r	hip_rotation_r	knee_angle_r	knee_angle_r_beta	ankle_angle_r	subtalar_angle_r	mtp_angle_r	hip_flexion_l	hip_adduction_l	hip_rotation_l	knee_angle_l	knee_angle_l_beta	ankle_angle_l	subtalar_angle_l	mtp_angle_l	lumbar_extension	lumbar_bending	lumbar_rotation	arm_flex_r	arm_add_r	arm_rot_r	elbow_flex_r	pro_sup_r	wrist_flex_r	wrist_dev_r	arm_flex_l	arm_add_l	arm_rot_l	elbow_flex_l	pro_sup_l	wrist_flex_l	wrist_dev_l
      0.92000000	     -0.45534837	      3.51948428	     -3.03524675	      0.04176439	      0.87169878	     -1.00813743	     -6.50294852	     -6.08359685	     -7.57308703	    -42.94912703	     -0.74960368	    -11.96540028	    -10.03023947	     12.30971527	     26.06491424	     -2.56061256	      8.59287642	    -30.60296320	     -0.53412247	      2.29094855	      0.55738606	     -0.38935378	     -4.68684148	     -4.74342176	      1.01910925	     11.36719728	    -11.32050999	     10.39927062	     29.53083309	     89.95437384	      0.00000000	      0.00000000	     -9.86019350	     10.68204787	    -21.48192533	      6.81018912	     89.95437384	      0.00000000	      0.00000000
      0.93000000	     -0.13614241	      3.79809818	     -2.91213701	      0.05610169	      0.87249997	     -1.00949390	     -5.36565859	     -6.40276953	     -7.10207511	    -46.01465578	     -0.80310725	    -13.03998530	    -10.96920007	     12.23794564	     24.94757237	     -2.97231404	      8.84906113	    -31.11904678	     -0.54312983	      3.28832245	     -0.13845824	     -0.68617922	     -4.95624786	     -5.01744931	      0.52172190	     11.09634767	    -11.07459941	     10.63096935	     28.75230953	     89.95437384	      0.00000000	      0.00000000	     -9.28075102	     10.79142001	    -21.64557194	      7.30113363	     89.95437384	      0.00000000	      0.00000000
      0.94000000	      0.20359411	      4.02920815	     -2.99576342	      0.07030236	      0.87324767	     -1.01031779	     -4.06186638	     -6.67183845	     -6.65006461	    -49.17688156	     -0.85829850	    -12.11080309	    -12.83798424	     12.06124888	     23.71846971	     -3.31432375	      9.01452699	    -31.48314552	     -0.54948455	      4.43916332	     -0.67197393	     -0.99056707	     -5.21865104	     -5.27288592	      0.16136520	     10.86982907	    -10.76106365	     11.02602346	     27.86604491	     89.95437384	      0.00000000	      0.00000000	     -8.66504928	     10.92184997	    -21.92327837	      7.80387916	     89.95437384	      0.00000000	      0.00000000
      0.95000000	     -0.00085364	      4.20106575	     -3.35815798	      0.08370786	      0.87297930	     -1.01078259	     -1.75146962	     -6.73101022	     -5.77695780	    -52.61028809	     -0.91822275	    -11.04433865	    -15.08834249	     12.20219609	     23.24248458	     -3.41163960	      9.54878844	    -32.01903495	     -0.55883758	      5.20308744	     -0.94308838	     -1.37908860	     -4.88419468	     -5.41683312	      0.11279896	     10.56073038	    -10.62692202	     11.91401771	     27.17069986	     89.95437384	      0.00000000	      0.00000000	     -8.18730514	     11.20421495	    -22.99525611	      8.80949265	     89.95437384	      0.00000000	      0.00000000
      0.96000000	      0.06168668	      4.27654380	     -3.56754567	      0.09720499	      0.87317322	     -1.01151901	      0.18254219	     -6.77596159	     -5.31002420	    -55.58525638	     -0.97014574	     -9.81505195	    -16.03521979	     13.46658386	     22.41455647	     -3.61531692	      9.61322235	    -32.47228576	     -0.56674830	      6.30825638	     -0.83203018	     -2.22887392	     -4.83600175	     -5.41383227	      0.02350387	     10.23983670	    -10.55035922	     12.84084620	     26.36923226	     89.95437384	      0.00000000	      0.00000000	     -7.61899364	     11.79519188	    -26.36594840	     10.22491241	     89.95437384	      0.00000000	      0.00000000
      0.97000000	      0.53904094	      4.27093495	     -3.89010417	      0.11073245	      0.87414406	     -1.01185568	      1.62399177	     -6.78376699	     -4.95699085	    -58.08654009	     -1.01380138	     -8.47838313	    -16.77936707	     13.24030477	     20.96435213	     -3.77435711	      9.59472847	    -32.65916650	     -0.57000999	      7.35567461	     -1.01288746	     -2.47260182	     -5.28779071	     -5.37899306	     -0.05533846	     10.05740878	    -10.29589177	     13.22266612	     25.39173378	     89.95437384	      0.00000000	      0.00000000	     -6.63678017	     11.86311393	    -26.35692927	     10.68130362	     89.95437384	      0.00000000	      0.00000000
      0.98000000	      0.27775612	      4.43879007	     -4.55703390	      0.12350954	      0.87390580	     -1.01196921	      4.29694721	     -6.91037056	     -4.18984458	    -60.79242909	     -1.06102805	     -6.74638148	    -16.79451689	     13.18403386	     20.41203885	     -3.95511446	      9.98239392	    -32.87875109	     -0.57384246	      8.36400668	     -0.45504742	     -2.81458855	     -4.90058371	     -5.44705489	      0.22967151	      9.71992723	    -10.28319642	     14.54944916	     24.66807685	     89.95437384	      0.00000000	      0.00000000	     -5.80039740	     12.03650484	    -26.66888287	     11.54772748	     89.95437384	      0.00000000	      0.00000000
      0.99000000	      0.34598826	      4.47828815	     -5.00342062	      0.13651289	      0.87444943	     -1.01229508	      6.39033104	     -6.86076328	     -3.72114615	    -62.79174470	     -1.09592269	     -5.35005257	    -16.77634591	     13.11424814	     19.32467744	     -4.21795487	      9.81727900	    -32.84496469	     -0.57325278	      9.42755948	     -0.00045152	     -3.12609909	     -4.89133435	     -5.37135380	      0.30111411	      9.41849403	    -10.17167997	     15.41734016	     23.80880469	     89.95437384	      0.00000000	      0.00000000	     -4.76444940	     12.16486331	    -27.05490338	     12.17507026	     89.95437384	      0.00000000	      0.00000000
      1.00000000	      0.60012300	      4.34893702	     -5.30697456	      0.14977754	      0.87558645	     -1.01266342	      8.06680659	     -6.52926328	     -3.39407983	    -64.13393772	     -1.11934838	     -4.43036196	    -16.81889255	     12.86678145	     17.86015722	     -4.32260171	      9.57751395	    -32.55257823	     -0.56814967	     10.36789416	     -0.06343515	     -3.29455421	     -5.08746327	     -5.10745588	      0.26790126	      9.08266278	     -9.99217838	     15.85059141	     22.84149262	     89.95437384	      0.00000000	      0.00000000	     -3.56803446	     12.16886271	    -27.05812003	     12.56020116	     89.95437384	      0.00000000	      0.00000000
      1.01000000	      0.78305957	      4.29444626	     -5.68641851	      0.16283656	      0.87671444	     -1.01289701	      9.87830422	     -6.21242115	     -2.98409614	    -65.16791700	     -1.13739472	     -3.49035751	    -16.55115594	     12.54959526	     16.41138787	     -4.46916339	      9.52571790	    -32.09970543	     -0.56024555	     11.19258749	     -0.00137568	     -3.41634566	     -5.19536049	     -4.92001470	      0.27963630	      8.71240807	     -9.82477965	     16.38807448	     21.91590512	     89.95437384	      0.00000000	      0.00000000	     -2.40735296	     12.21350537	    -27.01245559	     13.08396925	     89.95437384	      0.00000000	      0.00000000
      1.02000000	      0.95819341	      4.37220366	     -6.15290957	      0.17586824	      0.87780276	     -1.01314255	     11.73378342	     -6.05926968	     -2.54555213	    -65.95125241	     -1.15106650	     -1.97285622	    -15.99077367	     12.02744199	     14.86431317	     -4.76613718	      9.64648849	    -31.40730995	     -0.54816097	     11.93353791	      0.44978149	     -3.53874991	     -5.26177276	     -4.86272467	      0.31809944	      8.31510457	     -9.73040659	     17.08050020	     21.13950461	     89.95437384	      0.00000000	      0.00000000	     -1.31101371	     12.28833073	    -26.87712912	     13.74715359	     89.95437384	      0.00000000	      0.00000000
      1.03000000	      0.98883002	      4.17241747	     -6.29337781	      0.18886348	      0.87898429	     -1.01337500	     13.48295055	     -5.48122705	     -2.44065575	    -66.06514381	     -1.15305428	     -1.34726741	    -15.68910502	     11.71807695	     13.46398533	     -4.80493011	      9.36234938	    -30.71546470	     -0.53608599	     12.44447026	      0.38598606	     -3.60393180	     -5.18694563	     -4.50492720	      0.12838870	      7.83478928	     -9.53960142	     17.35906767	     20.22834419	     89.95437384	      0.00000000	      0.00000000	     -0.07547189	     12.31959972	    -26.64786478	     14.15280519	     89.95437384	      0.00000000	      0.00000000
      1.04000000	      1.43831110	      4.17002883	     -6.58854514	      0.20212750	      0.88081916	     -1.01370545	     14.69590753	     -5.24955223	     -2.28876121	    -65.77158478	     -1.14793071	     -0.41741122	    -14.53487157	     10.58026953	     11.39979832	     -5.13802655	      9.24023636	    -29.61280653	     -0.51684097	     12.87214944	      0.79254207	     -3.76810753	     -5.55655981	     -4.38383765	     -0.04970225	      7.40290075	     -9.43670627	     17.98800947	     19.42176281	     89.95437384	      0.00000000	      0.00000000	      1.05504489	     12.29597568	    -25.61131343	     14.79993732	     89.95437384	      0.00000000	      0.00000000
      1.05000000	      1.25420062	      3.98111035	     -6.60456849	      0.21474444	      0.88163443	     -1.01410944	     16.61457211	     -4.79582511	     -2.59702402	    -65.27732215	     -1.13930420	     -0.02764579	    -14.24613378	     10.29085939	     10.27412002	     -5.05812665	      9.30735721	    -28.94671717	     -0.50521552	     13.14470975	      0.67280454	     -3.77267920	     -5.27611238	     -3.99006422	     -0.34688982	      6.81232458	     -9.32082519	     18.10542554	     18.73561720	     89.95437384	      0.00000000	      0.00000000	      2.23845907	     12.37436888	    -25.35873590	     15.44479787	     89.95437384	      0.00000000	      0.00000000
